<svg xmlns="http://www.w3.org/2000/svg" version="1.1" xmlns:xlink="http://www.w3.org/1999/xlink" viewBox="0 0 192 192">
<defs>
<linearGradient id="a">
<stop stop-color="#08827f" stop-opacity=".2" offset="0"/>
<stop stop-color="#088270" stop-opacity="0" offset="1"/>
</linearGradient>
<linearGradient id="c" y2="296.471" xlink:href="#a" gradientUnits="userSpaceOnUse" x2="1.85208" gradientTransform="matrix(34.0157 0 0 34.0157 -10 -9900.68)" y1="295.412" x1="1.85208"/>
<linearGradient id="b" y2="296.471" xlink:href="#a" gradientUnits="userSpaceOnUse" x2="5.29167" gradientTransform="matrix(34.287 -11.429 10.7568 32.2702 -3183.72 -9289.87)" y1="291.179" x1="5.29167"/>
</defs>
<path fill="#088270" d="m44 184v3.99987h126c9.972 0 18-8.02809 18-18.0001v-5.99967z"/>
<path fill="#e2e2e2" d="m44 40.0002v144h126c9.972 0 18-8.02809 18-18.0002v-108c0-9.97173-8.028-17.9998-18-17.9998z"/>
<path fill="url(#b)" d="m148 40l-104 34.666v109.334h126c9.972 0 18-8.028 18-18v-6.002l-40-119.998z"/>
<path fill="#a0a0a0" d="m44 148h104l-104 36z"/>
<path fill="url(#c)" d="m44 148v35.9995l104-36z"/>
<path fill="#088270" d="m3.99998 26.0001v108c0 9.972 8.028 18 18 18h114.444l11.556-4.00005z"/>
<path fill="#b71c1c" d="m22 4.00002c-9.972 0-18 8.028-18 18.0001v108c0 9.972 8.028 18.0001 18 18.0001h126v-144z"/>
<path fill="#f5f5f5" d="m76.0568 22.0001c-18.6898-0.036-36.8935 9.64989-46.9107 27.0004-14.9097 25.8233-6.04812 58.8506 19.7752 73.76 25.8233 14.9098 58.8342 6.04836 73.7439-19.7751l-7.48995-4.33629c-3.61807 6.26436-8.68337 11.5942-14.7477 15.5092l11.5724-65.5953c2.73785 3.59685 4.94111 7.61985 6.51793 11.9453l8.13256-2.96991c-4.341-11.929-12.749-21.9514-23.744-28.2964-8.4726-4.8925-17.7176-7.2256-26.8492-7.2416zm-0.1512 8.65629c10.8812 0 20.8606 3.83391 28.6692 10.2279l-10.8814 61.6957-17.7016-48.633-17.6853 48.633-10.9028-61.8311c7.7869-6.3014 17.7069-10.0925 28.5017-10.0925zm-35.9269 17.6854 11.6265 65.9512c-12.6525-8.051-21.0605-22.1728-21.0605-38.2755 0-10.417 3.52627-20.0183 9.43399-27.6756zm36.0133 30.867 14.4777 39.7552c-4.57389 1.55547-9.46638 2.39769-14.5641 2.39769-5.0383 0-9.8822-0.8262-14.4129-2.34369z"/>
</svg>
